HIERARCHY
ROOT hip
{
  OFFSET 0 0 0
  CHANNELS 6 Xposition Yposition Zposition Zrotation Yrotation Xrotation
  JOINT abdomen
  {
    OFFSET 0 20.6881 -0.73152
    CHANNELS 3 Zrotation Xrotation Yrotation
    JOINT chest
    {
      OFFSET 0 11.7043 -0.48768
      CHANNELS 3 Zrotation Xrotation Yrotation
      JOINT neck
      {
        OFFSET 0 22.1894 -2.19456
        CHANNELS 3 Zrotation Xrotation Yrotation
        JOINT head
        {
          OFFSET -0.24384 7.07133 1.2192
          CHANNELS 3 Zrotation Xrotation Yrotation
          JOINT leftEye
          {
            OFFSET 4.14528 8.04674 8.04672
            CHANNELS 3 Zrotation Xrotation Yrotation
            End Site
            {
              OFFSET 1 0 0
            }
          }
          JOINT rightEye
          {
            OFFSET -3.6576 8.04674 8.04672
            CHANNELS 3 Zrotation Xrotation Yrotation
            End Site
            {
              OFFSET 1 0 0
            }
          }
        }
      }
      JOINT rCollar
      {
        OFFSET -2.68224 19.2634 -4.8768
        CHANNELS 3 Zrotation Xrotation Yrotation
        JOINT rShldr
        {
          OFFSET -8.77824 -1.95073 1.46304
          CHANNELS 3 Zrotation Xrotation Yrotation
          JOINT rForeArm
          {
            OFFSET -28.1742 -1.7115 0.48768
            CHANNELS 3 Zrotation Xrotation Yrotation
            JOINT rHand
            {
              OFFSET -22.5879 0.773209 7.07136
              CHANNELS 3 Zrotation Xrotation Yrotation
              JOINT rThumb1
              {
                OFFSET -1.2192 -0.487915 3.41376
                CHANNELS 3 Zrotation Xrotation Yrotation
                JOINT rThumb2
                {
                  OFFSET -3.37035 -0.52449 3.41376
                  CHANNELS 3 Zrotation Xrotation Yrotation
                  End Site
                  {
                    OFFSET -1.78271 -1.18214 1.43049
                  }
                }
              }
              JOINT rIndex1
              {
                OFFSET -7.75947 0.938293 5.60832
                CHANNELS 3 Zrotation Xrotation Yrotation
                JOINT rIndex2
                {
                  OFFSET -2.54057 -0.884171 1.56538
                  CHANNELS 3 Zrotation Xrotation Yrotation
                  End Site
                  {
                    OFFSET -1.62519 -0.234802 1.16502
                  }
                }
              }
              JOINT rMid1
              {
                OFFSET -8.24714 1.18213 3.41376
                CHANNELS 3 Zrotation Xrotation Yrotation
                JOINT rMid2
                {
                  OFFSET -3.10165 -0.590103 1.0647
                  CHANNELS 3 Zrotation Xrotation Yrotation
                  End Site
                  {
                    OFFSET -2.48547 -0.328903 0.83742
                  }
                }
              }
              JOINT rRing1
              {
                OFFSET -8.82822 0.546677 1.51678
                CHANNELS 3 Zrotation Xrotation Yrotation
                JOINT rRing2
                {
                  OFFSET -2.60934 -0.819778 -0.0198488
                  CHANNELS 3 Zrotation Xrotation Yrotation
                  End Site
                  {
                    OFFSET -2.33842 -0.294052 0.168128
                  }
                }
              }
              JOINT rPinky1
              {
                OFFSET -8.27202 -0.0477905 -0.4584
                CHANNELS 3 Zrotation Xrotation Yrotation
                JOINT rPinky2
                {
                  OFFSET -1.82734 -0.647385 -0.700984
                  CHANNELS 3 Zrotation Xrotation Yrotation
                  End Site
                  {
                    OFFSET -1.69225 -0.51767 -0.607171
                  }
                }
              }
            }
          }
        }
      }
      JOINT lCollar
      {
        OFFSET 2.68224 19.2634 -4.8768
        CHANNELS 3 Zrotation Xrotation Yrotation
        JOINT lShldr
        {
          OFFSET 8.77824 -1.95073 1.46304
          CHANNELS 3 Zrotation Xrotation Yrotation
          JOINT lForeArm
          {
            OFFSET 28.1742 -1.7115 0.48768
            CHANNELS 3 Zrotation Xrotation Yrotation
            JOINT lHand
            {
              OFFSET 22.5879 0.773209 7.07136
              CHANNELS 3 Zrotation Xrotation Yrotation
              JOINT lThumb1
              {
                OFFSET 1.2192 -0.487915 3.41376
                CHANNELS 3 Zrotation Xrotation Yrotation
                JOINT lThumb2
                {
                  OFFSET 3.37035 -0.52449 3.41376
                  CHANNELS 3 Zrotation Xrotation Yrotation
                  End Site
                  {
                    OFFSET 1.78271 -1.18214 1.43049
                  }
                }
              }
              JOINT lIndex1
              {
                OFFSET 7.75947 0.938293 5.60832
                CHANNELS 3 Zrotation Xrotation Yrotation
                JOINT lIndex2
                {
                  OFFSET 2.54057 -0.884171 1.56538
                  CHANNELS 3 Zrotation Xrotation Yrotation
                  End Site
                  {
                    OFFSET 1.62519 -0.234802 1.16502
                  }
                }
              }
              JOINT lMid1
              {
                OFFSET 8.24714 1.18213 3.41376
                CHANNELS 3 Zrotation Xrotation Yrotation
                JOINT lMid2
                {
                  OFFSET 3.10165 -0.590103 1.0647
                  CHANNELS 3 Zrotation Xrotation Yrotation
                  End Site
                  {
                    OFFSET 2.48547 -0.328903 0.83742
                  }
                }
              }
              JOINT lRing1
              {
                OFFSET 8.82822 0.546677 1.51678
                CHANNELS 3 Zrotation Xrotation Yrotation
                JOINT lRing2
                {
                  OFFSET 2.60934 -0.819778 -0.0198488
                  CHANNELS 3 Zrotation Xrotation Yrotation
                  End Site
                  {
                    OFFSET 2.33842 -0.294052 0.168128
                  }
                }
              }
              JOINT lPinky1
              {
                OFFSET 8.27202 -0.0477905 -0.4584
                CHANNELS 3 Zrotation Xrotation Yrotation
                JOINT lPinky2
                {
                  OFFSET 1.82734 -0.647385 -0.700984
                  CHANNELS 3 Zrotation Xrotation Yrotation
                  End Site
                  {
                    OFFSET 1.69225 -0.51767 -0.607171
                  }
                }
              }
            }
          }
        }
      }
    }
  }
  JOINT rButtock
  {
    OFFSET -8.77824 4.35084 1.2192
    CHANNELS 3 Zrotation Xrotation Yrotation
    JOINT rThigh
    {
      OFFSET 0 -1.70687 -2.19456
      CHANNELS 3 Zrotation Xrotation Yrotation
      JOINT rShin
      {
        OFFSET 0 -36.8199 0.73152
        CHANNELS 3 Zrotation Xrotation Yrotation
        JOINT rFoot
        {
          OFFSET 0.73152 -45.1104 -5.12064
          CHANNELS 3 Zrotation Xrotation Yrotation
          End Site
          {
            OFFSET -1.1221 -3.69964 12.103
          }
        }
      }
    }
  }
  JOINT lButtock
  {
    OFFSET 8.77824 4.35084 1.2192
    CHANNELS 3 Zrotation Xrotation Yrotation
    JOINT lThigh
    {
      OFFSET 0 -1.70687 -2.19456
      CHANNELS 3 Zrotation Xrotation Yrotation
      JOINT lShin
      {
        OFFSET 0 -36.8199 0.73152
        CHANNELS 3 Zrotation Xrotation Yrotation
        JOINT lFoot
        {
          OFFSET -0.73152 -45.1104 -5.12064
          CHANNELS 3 Zrotation Xrotation Yrotation
          End Site
          {
            OFFSET 1.1221 -3.69964 12.103
          }
        }
      }
    }
  }
}
MOTION
Frames:	7
Frame Time:	0.00833333
93.1554 84.9514 48.5006 0.0 0.0 0.0 -0.0821265 -0.00059841 -0.0023524 -0.0226699 -0.000955172 -0.00392725 -2.12258e-15 7.95139e-16 2.32951e-17 -6.37043e-15 9.54166e-15 6.36732e-17 -0.0 0.0 0.0 -0.0 0.0 0.0 -1.04498e-15 7.76503e-19 4.96962e-17 -1.9911e-14 -1.30452e-16 1.39149e-15 -3.81219e-13 1.17084e-13 3.18055e-15 -4.40725e-12 -1.09878e-13 3.81667e-14 -1.03882e-11 1.40614e-14 1.11319e-13 -1.79439e-11 2.22639e-14 1.81292e-13 -1.03857e-11 1.23246e-14 1.01778e-13 7.73091 5.47488 0.417314 -1.03879e-11 1.35174e-14 1.11319e-13 2.90554 0.965183 0.102902 -1.03824e-11 1.42131e-14 1.00983e-13 10.2786 0.731801 0.0259123 -1.03921e-11 1.74931e-14 1.01778e-13 2.22167 -0.733487 -0.20892 -1.04233e-15 7.76503e-19 -4.96962e-17 -2.4623e-14 2.79541e-16 -9.93923e-16 -3.88127e-13 -1.11916e-13 2.8625e-14 -4.40079e-12 1.25781e-13 1.59028e-14 -1.03865e-11 2.40445e-14 9.54166e-14 -1.79324e-11 3.49861e-14 1.75726e-13 -1.03897e-11 2.34566e-14 1.04958e-13 -7.73091 5.47488 -0.417314 -1.03854e-11 2.36554e-14 9.85972e-14 -2.90554 0.965183 -0.102902 -1.03914e-11 2.36554e-14 1.01778e-13 -10.2786 0.731801 -0.0259123 -1.03811e-11 2.74323e-14 9.54166e-14 -2.22167 -0.733487 0.20892 -2.03217e-16 0.0 -3.88251e-19 0.419493 -2.96758 -0.0374301 -0.00606573 -0.17734 -0.0534187 -0.481441 3.14428 0.118504 2.03217e-16 0.0 3.88251e-19 -0.544794 -3.29622 0.0452332 0.00510414 0.417967 0.0447122 0.48274 2.87763 -0.113282
93.3531 83.5968 46.7243 0.6122 1.0742 6.9602 -0.206824 0.445717 -1.67427 -0.262266 -1.74906 -0.498678 3.85844 6.66875 1.61977 -10.1707 -20.3031 -2.54896 -0.0 0.0 0.0 -0.0 0.0 0.0 -2.82973e-16 1.5002e-14 -1.17496e-14 12.9819 5.44455 -5.39827 3.6743 13.6864 -43.8181 0.00115653 -0.883609 -0.124144 -1.71371e-10 -7.25261e-10 -1.59254e-10 -2.96041e-10 -1.25695e-09 -2.76325e-10 -1.7137e-10 -7.25267e-10 -1.59268e-10 7.73091 5.47488 0.417314 -1.71372e-10 -7.25263e-10 -1.59255e-10 2.90554 0.965183 0.102902 -1.71366e-10 -7.25262e-10 -1.59262e-10 10.2786 0.731801 0.0259123 -1.71378e-10 -7.25259e-10 -1.59259e-10 2.22167 -0.733487 -0.20892 -3.21171e-16 1.5003e-14 -1.19057e-14 -7.60364 8.21283 5.96399 -3.50002 13.8314 43.6007 -0.113435 -7.49628 1.02147 9.12376e-11 -2.52475e-10 -9.53134e-11 1.5964e-10 -4.44736e-10 -1.63003e-10 9.12332e-11 -2.52477e-10 -9.53066e-11 -7.73091 5.47488 -0.417314 9.12387e-11 -2.52477e-10 -9.531e-11 -2.90554 0.965183 -0.102902 9.12306e-11 -2.52476e-10 -9.53083e-11 -10.2786 0.731801 -0.0259123 9.12406e-11 -2.52474e-10 -9.5316e-11 -2.22167 -0.733487 0.20892 -2.03217e-16 0.0 -3.88251e-19 -0.0595524 -5.71486 -0.456259 -0.0051189 5.24225 0.0315141 -0.332956 -1.64017 1.47229 2.03217e-16 0.0 3.88251e-19 -0.436322 -5.97049 -0.436064 -0.00139662 5.22799 -0.0383817 0.510935 -1.01007 0.507963
93.3801 83.6627 46.7573 0.7016 1.1674 6.814 -0.310072 0.95589 -3.44097 -0.543167 -3.60731 -1.02277 7.51215 13.7108 3.40595 -23.4803 -41.6481 -6.59036 -0.0 0.0 0.0 -0.0 0.0 0.0 7.18328e-16 3.5035e-14 -2.53357e-14 27.8644 11.1204 -11.2735 19.5672 1.88607 -87.6162 -0.00212887 -1.87074 -0.262943 -3.3612e-10 -1.51631e-09 -3.38732e-10 -5.80574e-10 -2.62789e-09 -5.87693e-10 -3.3612e-10 -1.51632e-09 -3.38751e-10 7.73091 5.47488 0.417314 -3.36121e-10 -1.51631e-09 -3.38734e-10 2.90554 0.965183 0.102902 -3.36115e-10 -1.51631e-09 -3.38737e-10 10.2786 0.731801 0.0259123 -3.3613e-10 -1.5163e-09 -3.38733e-10 2.22167 -0.733487 -0.20892 6.35926e-16 3.5037e-14 -2.55531e-14 -17.6039 16.6783 12.6874 -19.3893 2.19932 87.2454 0.0669223 -15.3598 2.15385 2.1592e-10 -5.73723e-10 -1.94086e-10 3.77062e-10 -1.00904e-09 -3.31438e-10 2.15915e-10 -5.73727e-10 -1.94082e-10 -7.73091 5.47488 -0.417314 2.15922e-10 -5.73727e-10 -1.94083e-10 -2.90554 0.965183 -0.102902 2.15911e-10 -5.73724e-10 -1.94082e-10 -10.2786 0.731801 -0.0259123 2.15921e-10 -5.73723e-10 -1.94092e-10 -2.22167 -0.733487 0.20892 -2.03217e-16 0.0 -3.88251e-19 -0.604488 -8.58781 -0.888951 -0.0217648 10.964 0.123284 0.0693061 -6.71512 2.90444 2.03217e-16 0.0 3.88251e-19 -0.368856 -8.76962 -0.946268 0.0070906 10.3122 -0.128066 0.63358 -5.13741 1.1731
93.3354 83.7454 46.7463 0.4657 1.3067 6.932 -0.37817 1.33379 -5.01931 -0.83234 -5.24371 -1.49374 10.3844 19.9402 5.13504 -40.5315 -60.1671 -14.5336 -0.0 0.0 0.0 -0.0 0.0 0.0 1.24103e-15 4.50046e-14 -3.53483e-14 42.0784 15.7437 -16.7681 22.473 -29.7794 -112.75 -0.00802797 -2.65078 -0.372786 -4.93338e-10 -2.17581e-09 -4.77986e-10 -8.52236e-10 -3.7709e-09 -8.29337e-10 -4.93339e-10 -2.17583e-09 -4.78009e-10 7.73091 5.47488 0.417314 -4.9334e-10 -2.17581e-09 -4.77988e-10 2.90554 0.965183 0.102902 -4.93333e-10 -2.17582e-09 -4.77988e-10 10.2786 0.731801 0.0259123 -4.9335e-10 -2.17581e-09 -4.77982e-10 2.22167 -0.733487 -0.20892 1.12115e-15 4.50074e-14 -3.56178e-14 -28.2355 23.5242 19.374 -22.515 -29.3767 112.023 0.517071 -22.459 3.28784 2.94486e-10 -7.57474e-10 -2.86131e-10 5.14784e-10 -1.33428e-09 -4.89359e-10 2.94479e-10 -7.57479e-10 -2.8613e-10 -7.73091 5.47488 -0.417314 2.94487e-10 -7.5748e-10 -2.86127e-10 -2.90554 0.965183 -0.102902 2.94475e-10 -7.57476e-10 -2.86128e-10 -10.2786 0.731801 -0.0259123 2.94484e-10 -7.57476e-10 -2.86139e-10 -2.22167 -0.733487 0.20892 -2.03217e-16 0.0 -3.88251e-19 -1.1403 -11.2071 -1.31224 -0.0528582 16.0813 0.209169 0.651931 -11.1805 4.25938 2.03217e-16 0.0 3.88251e-19 -0.356595 -11.3162 -1.419 0.028563 14.848 -0.211138 0.822244 -8.78148 1.77069
93.2702 83.8511 46.7181 0.1435 1.461 7.2207 -0.424475 1.38625 -6.12515 -1.07717 -6.32698 -1.82643 12.1668 24.2009 6.45797 -62.1169 -71.9359 -29.3043 -0.0 0.0 0.0 -0.0 0.0 0.0 5.67256e-16 2.98158e-14 -3.64273e-14 52.2967 18.3225 -20.7215 13.604 -57.039 -128.134 -0.0104195 -2.91315 -0.409773 -6.31728e-10 -2.50647e-09 -5.16678e-10 -1.09172e-09 -4.34407e-09 -8.9667e-10 -6.31729e-10 -2.50649e-09 -5.16703e-10 7.73091 5.47488 0.417314 -6.3173e-10 -2.50648e-09 -5.16681e-10 2.90554 0.965183 0.102902 -6.31723e-10 -2.50648e-09 -5.1668e-10 10.2786 0.731801 0.0259123 -6.31741e-10 -2.50647e-09 -5.16672e-10 2.22167 -0.733487 -0.20892 4.26681e-16 2.98191e-14 -3.67255e-14 -36.3698 27.4184 24.4659 -14.4442 -56.6649 126.442 1.04156 -27.6743 4.22683 2.57758e-10 -5.97486e-10 -3.61356e-10 4.53257e-10 -1.06186e-09 -6.20994e-10 2.57749e-10 -5.97487e-10 -3.61356e-10 -7.73091 5.47488 -0.417314 2.57757e-10 -5.97488e-10 -3.61352e-10 -2.90554 0.965183 -0.102902 2.57746e-10 -5.97488e-10 -3.61354e-10 -10.2786 0.731801 -0.0259123 2.57755e-10 -5.97488e-10 -3.61365e-10 -2.22167 -0.733487 0.20892 -2.03217e-16 0.0 -3.88251e-19 -1.57611 -13.1938 -1.69838 -0.0846719 19.688 0.27262 1.20464 -14.1488 5.33736 2.03217e-16 0.0 3.88251e-19 -0.389416 -13.2336 -1.78171 0.0517162 18.0129 -0.271266 0.990682 -11.2218 2.17567
93.215 83.9014 46.6688 -0.1072 1.5414 7.669 -0.475376 0.954567 -6.57158 -1.24188 -6.61755 -1.9628 12.8662 25.7379 7.0097 -76.1136 -75.5421 -40.4337 -0.0 0.0 0.0 -0.0 0.0 0.0 -3.22345e-15 -3.88443e-14 -2.2913e-14 55.7074 18.0649 -22.0565 3.31817 -67.828 -138.978 -0.00553354 -2.42373 -0.340779 -7.77269e-10 -2.33142e-09 -3.80524e-10 -1.34432e-09 -4.04118e-09 -6.61065e-10 -7.77269e-10 -2.33144e-09 -3.80549e-10 7.73091 5.47488 0.417314 -7.7727e-10 -2.33143e-09 -3.80527e-10 2.90554 0.965183 0.102902 -7.77262e-10 -2.33143e-09 -3.80527e-10 10.2786 0.731801 0.0259123 -7.7728e-10 -2.33142e-09 -3.80517e-10 2.22167 -0.733487 -0.20892 -3.36153e-15 -3.88409e-14 -2.3205e-14 -38.7874 27.6812 26.2064 -5.37165 -67.5563 135.917 1.37265 -30.4537 4.76835 -9.19596e-12 2.649e-10 -4.28397e-10 -5.58092e-12 4.29747e-10 -7.44234e-10 -9.20958e-12 2.64909e-10 -4.28397e-10 -7.73091 5.47488 -0.417314 -9.20264e-12 2.64908e-10 -4.28396e-10 -2.90554 0.965183 -0.102902 -9.20691e-12 2.64898e-10 -4.28396e-10 -10.2786 0.731801 -0.0259123 -9.19673e-12 2.64898e-10 -4.28408e-10 -2.22167 -0.733487 0.20892 -2.03217e-16 0.0 -3.88251e-19 -1.85094 -14.3244 -2.03273 -0.100474 21.1828 0.298551 1.49041 -15.0443 5.96807 2.03217e-16 0.0 3.88251e-19 -0.45366 -14.3041 -1.98634 0.062718 19.2673 -0.294552 1.04285 -11.9855 2.27532
93.2276 83.9371 46.6174 -0.0339 1.5355 8.1718 -0.529726 0.1789 -6.54781 -1.34245 -6.34312 -1.95793 12.9025 25.3446 6.9497 -72.8158 -74.6588 -37.2551 -0.0 0.0 0.0 -0.0 0.0 0.0 -9.17187e-15 -1.44829e-13 9.2559e-16 54.1024 15.8942 -21.4863 4.56282 -66.7085 -137.902 0.00063485 -1.39859 -0.1965 -9.26321e-10 -1.79731e-09 -1.21103e-10 -1.60351e-09 -3.11626e-09 -2.11881e-10 -9.26319e-10 -1.79732e-09 -1.21124e-10 7.73091 5.47488 0.417314 -9.26321e-10 -1.79732e-09 -1.21104e-10 2.90554 0.965183 0.102902 -9.26313e-10 -1.79732e-09 -1.21108e-10 10.2786 0.731801 0.0259123 -9.26329e-10 -1.79731e-09 -1.21097e-10 2.22167 -0.733487 -0.20892 -9.29089e-15 -1.44826e-13 6.64684e-16 -36.7759 25.5757 25.3878 -6.71194 -66.3727 134.611 1.47073 -31.4921 4.9668 -4.3732e-10 1.61847e-09 -4.88863e-10 -7.42576e-10 2.77398e-09 -8.60127e-10 -4.37339e-10 1.61849e-09 -4.88861e-10 -7.73091 5.47488 -0.417314 -4.37334e-10 1.61849e-09 -4.88864e-10 -2.90554 0.965183 -0.102902 -4.37328e-10 1.61847e-09 -4.88862e-10 -10.2786 0.731801 -0.0259123 -4.37317e-10 1.61847e-09 -4.88873e-10 -2.22167 -0.733487 0.20892 -2.03217e-16 0.0 -3.88251e-19 -2.00049 -14.8424 -2.3268 -0.100487 21.1688 0.295745 1.52171 -14.4665 6.25743 2.03217e-16 0.0 3.88251e-19 -0.528316 -14.7685 -2.07436 0.0614778 19.1566 -0.290052 0.995766 -11.5522 2.15281
